<?xml version="1.0" encoding="UTF-8"?>
<svg id="Logo" xmlns="http://www.w3.org/2000/svg" xmlns:xlink="http://www.w3.org/1999/xlink" viewBox="0 0 435.07 480.1">
  <defs>
    <style>
      .cls-1 {
        fill: #64b9ff;
      }

      .cls-2 {
        fill: #fff;
      }

      .cls-3 {
        fill: url(#linear-gradient);
      }
    </style>
    <linearGradient id="linear-gradient" x1="217.54" y1="480.1" x2="217.54" y2="0" gradientUnits="userSpaceOnUse">
      <stop offset="0" stop-color="#1971c2"/>
      <stop offset="1" stop-color="#3b5bdb"/>
    </linearGradient>
  </defs>
  <path class="cls-3" d="M0,156.03v168.05c0,25.72,13.72,49.49,36,62.35l145.54,84.03c22.28,12.86,49.72,12.86,72,0l145.54-84.03c22.28-12.86,36-36.63,36-62.35v-168.05c0-25.72-13.72-49.49-36-62.35L253.54,9.65c-22.28-12.86-49.72-12.86-72,0L36,93.67C13.72,106.53,0,130.3,0,156.03Z"/>
  <path class="cls-2" d="M349.65,145.33l-119.62,69.06c-7.82,4.52-17.46,4.52-25.28,0l-119.62-69.06c-16.85-9.73-16.85-34.06,0-43.79l119.62-69.06c7.82-4.52,17.46-4.52,25.28,0l119.62,69.06c16.85,9.73,16.85,34.06,0,43.79Z"/>
  <path class="cls-1" d="M407.6,208.93v123c0,10.15-5.41,19.53-14.2,24.6l-106.52,61.5c-18.94,10.93-42.61-2.73-42.61-24.6v-123c0-10.15,5.41-19.53,14.2-24.6l106.52-61.5c18.94-10.93,42.61,2.73,42.61,24.6Z"/>
  <path class="cls-1" d="M28.45,208.93v123c0,10.15,5.41,19.53,14.2,24.6l106.52,61.5c18.94,10.93,42.61-2.73,42.61-24.6v-123c0-10.15-5.41-19.53-14.2-24.6l-106.52-61.5c-18.94-10.93-42.61,2.73-42.61,24.6Z"/>
</svg>