<?xml version="1.0" encoding="UTF-8"?>
<svg id="Logo" xmlns="http://www.w3.org/2000/svg" xmlns:xlink="http://www.w3.org/1999/xlink" viewBox="0 0 500 500">
  <defs>
    <style>
      .cls-1 {
        fill: #64b9ff;
      }

      .cls-2 {
        fill: #fff;
      }

      .cls-3 {
        fill: url(#linear-gradient);
      }
    </style>
    <linearGradient id="linear-gradient" x1="250" y1="488.81" x2="250" y2="11.19" gradientUnits="userSpaceOnUse">
      <stop offset="0" stop-color="#1971c2"/>
      <stop offset="1" stop-color="#3b5bdb"/>
    </linearGradient>
  </defs>
  <path class="cls-3" d="M32.46,170.59v158.81c0,28.58,15.25,54.99,40,69.28l137.54,79.41c24.75,14.29,55.25,14.29,80,0l137.54-79.41c24.75-14.29,40-40.7,40-69.28v-158.81c0-28.58-15.25-54.99-40-69.28L290,21.91c-24.75-14.29-55.25-14.29-80,0L72.46,101.31c-24.75,14.29-40,40.7-40,69.28Z"/>
  <path class="cls-2" d="M379.05,157.17l-117.17,67.65c-7.43,4.29-16.57,4.29-24,0l-117.17-67.65c-16-9.24-16-32.33,0-41.57l117.17-67.65c7.43-4.29,16.57-4.29,24,0l117.17,67.65c16,9.24,16,32.33,0,41.57Z"/>
  <path class="cls-1" d="M434.49,218.38v120.7c0,9.65-5.15,18.56-13.5,23.38l-104.53,60.35c-18,10.39-40.5-2.6-40.5-23.38v-120.7c0-9.65,5.15-18.56,13.5-23.38l104.53-60.35c18-10.39,40.5,2.6,40.5,23.38Z"/>
  <path class="cls-1" d="M211.73,364.32l-104.53-60.14c-18-10.36-40.46,2.64-40.46,23.4v11.38c0,9.65,5.15,18.56,13.5,23.38l104.53,60.35c18,10.39,40.5-2.6,40.5-23.38v-11.59c0-9.66-5.16-18.59-13.54-23.4Z"/>
  <path class="cls-2" d="M211.73,255.32l-104.53-60.14c-18-10.36-40.46,2.64-40.46,23.4v11.38c0,9.65,5.15,18.56,13.5,23.38l104.53,60.35c18,10.39,40.5-2.6,40.5-23.38v-11.59c0-9.66-5.16-18.59-13.54-23.4Z"/>
</svg>