<?xml version="1.0" encoding="UTF-8"?>
<svg id="Logo" xmlns="http://www.w3.org/2000/svg" xmlns:xlink="http://www.w3.org/1999/xlink" viewBox="0 0 500 500">
  <defs>
    <style>
      .cls-1 {
        fill: #64b9ff;
      }

      .cls-2 {
        fill: #fff;
      }

      .cls-3 {
        fill: url(#linear-gradient);
      }
    </style>
    <linearGradient id="linear-gradient" x1="250" y1="495" x2="250" y2="5" gradientUnits="userSpaceOnUse">
      <stop offset="0" stop-color="#1971c2"/>
      <stop offset="1" stop-color="#3b5bdb"/>
    </linearGradient>
  </defs>
  <path class="cls-3" d="M32.46,147.5v205c0,14.29,7.62,27.5,20,34.64l177.54,102.5c12.38,7.15,27.62,7.15,40,0l177.54-102.5c12.38-7.15,20-20.35,20-34.64v-205c0-14.29-7.62-27.5-20-34.64L270,10.36c-12.38-7.15-27.62-7.15-40,0L52.46,112.86c-12.38,7.15-20,20.35-20,34.64Z"/>
  <path class="cls-2" d="M382.12,155.28l-119.62,69.06c-7.82,4.52-17.46,4.52-25.28,0l-119.62-69.06c-16.85-9.73-16.85-34.06,0-43.79l119.62-69.06c7.82-4.52,17.46-4.52,25.28,0l119.62,69.06c16.85,9.73,16.85,34.06,0,43.79Z"/>
  <path class="cls-1" d="M440.07,218.88v123c0,10.15-5.41,19.53-14.2,24.6l-106.52,61.5c-18.94,10.93-42.61-2.73-42.61-24.6v-123c0-10.15,5.41-19.53,14.2-24.6l106.52-61.5c18.94-10.93,42.61,2.73,42.61,24.6Z"/>
  <path class="cls-1" d="M60.91,218.88v123c0,10.15,5.41,19.53,14.2,24.6l106.52,61.5c18.94,10.93,42.61-2.73,42.61-24.6v-123c0-10.15-5.41-19.53-14.2-24.6l-106.52-61.5c-18.94-10.93-42.61,2.73-42.61,24.6Z"/>
</svg>