<?xml version="1.0" encoding="UTF-8"?>
<svg id="Logo" xmlns="http://www.w3.org/2000/svg" xmlns:xlink="http://www.w3.org/1999/xlink" viewBox="0 0 1968 500">
  <defs>
    <style>
      .cls-1 {
        fill: #64b9ff;
      }

      .cls-2 {
        fill: #fff;
      }

      .cls-3 {
        fill: url(#linear-gradient);
      }
    </style>
    <linearGradient id="linear-gradient" x1="470.04" y1="250" x2="45.04" y2="250" gradientUnits="userSpaceOnUse">
      <stop offset="0" stop-color="#1971c2"/>
      <stop offset="1" stop-color="#3b5bdb"/>
    </linearGradient>
  </defs>
  <g>
    <path class="cls-3" d="M45.04,159.92v180.16c0,21.3,11.29,41.01,29.67,51.77l152.5,89.33c18.73,10.97,41.92,10.97,60.65,0l152.5-89.33c18.38-10.77,29.67-30.47,29.67-51.77v-180.16c0-21.3-11.29-41.01-29.67-51.77L287.87,18.82c-18.73-10.97-41.92-10.97-60.65,0L74.71,108.15c-18.38,10.77-29.67,30.47-29.67,51.77Z"/>
    <path class="cls-2" d="M383.6,162.89l-104.11,60.1c-13.66,7.89-30.49,7.89-44.16,0l-104.11-60.1c-15.63-9.02-15.63-31.58,0-40.61l104.11-60.1c13.66-7.89,30.49-7.89,44.16,0l104.11,60.1c15.63,9.02,15.63,31.58,0,40.61Z"/>
    <path class="cls-1" d="M437.76,234.36v102.34c0,11.83-6.31,22.76-16.56,28.68l-88.63,51.17c-22.08,12.75-49.68-3.19-49.68-28.68v-102.34c0-11.83,6.31-22.76,16.56-28.68l88.63-51.17c22.08-12.75,49.68,3.19,49.68,28.68Z"/>
    <path class="cls-1" d="M217.74,363.86l-92.48-53.2c-20.8-11.96-46.75,3.05-46.75,27.04h0c0,11.14,5.95,21.44,15.6,27.01l92.48,53.39c20.8,12.01,46.79-3,46.79-27.01v-.19c0-11.16-5.96-21.47-15.64-27.04Z"/>
    <path class="cls-2" d="M217.74,257.38l-92.48-53.2c-20.8-11.96-46.75,3.05-46.75,27.04h0c0,11.14,5.95,21.44,15.6,27.01l92.48,53.39c20.8,12.01,46.79-3,46.79-27.01v-.19c0-11.16-5.96-21.47-15.64-27.04Z"/>
  </g>
  <g>
    <path d="M737.2,384.07c-20.3,0-38.48-4.61-54.53-13.84-16.05-9.23-28.71-22.61-37.99-40.14-9.28-17.53-13.92-38.71-13.92-63.52s4.66-46.17,14-63.75c9.33-17.58,22.04-30.99,38.14-40.22,16.1-9.23,34.2-13.84,54.29-13.84,13.02,0,25.15,1.82,36.38,5.46,11.23,3.64,21.2,8.95,29.92,15.92,8.71,6.97,15.84,15.51,21.38,25.61,5.54,10.1,9.18,21.61,10.92,34.53h-47.53c-1.03-6.36-3-11.97-5.92-16.84-2.92-4.87-6.56-9.02-10.92-12.46-4.36-3.43-9.36-6.05-15-7.84-5.64-1.79-11.74-2.69-18.3-2.69-11.9,0-22.33,2.98-31.3,8.92-8.97,5.95-15.95,14.59-20.92,25.92-4.98,11.33-7.46,25.1-7.46,41.3s2.51,30.4,7.54,41.68c5.02,11.28,12,19.79,20.92,25.53,8.92,5.74,19.28,8.61,31.07,8.61,6.56,0,12.64-.9,18.23-2.69,5.59-1.79,10.61-4.41,15.07-7.84,4.46-3.43,8.15-7.61,11.07-12.54,2.92-4.92,4.95-10.51,6.08-16.77h47.53c-1.23,10.67-4.38,20.87-9.46,30.61-5.08,9.74-11.82,18.46-20.23,26.15-8.41,7.69-18.41,13.74-29.99,18.15-11.59,4.41-24.61,6.61-39.07,6.61Z"/>
    <path d="M918.78,383.15c-11.9,0-22.3-2.59-31.22-7.77-8.92-5.18-15.82-12.61-20.69-22.3-4.87-9.69-7.31-21.25-7.31-34.68v-109.36h46.14v101.36c0,10.67,2.77,19.02,8.31,25.07,5.54,6.05,13.12,9.08,22.76,9.08,6.56,0,12.36-1.41,17.38-4.23,5.02-2.82,8.95-6.92,11.77-12.3,2.82-5.38,4.23-11.87,4.23-19.46v-99.51h46.3v171.96h-43.68l-.62-42.91h2.62c-4.51,14.46-11.41,25.59-20.69,33.38-9.28,7.79-21.05,11.69-35.3,11.69Z"/>
    <path d="M1142.5,383.92c-9.33,0-17.23-1.59-23.69-4.77s-11.72-7.1-15.77-11.77c-4.05-4.66-7.15-9.3-9.3-13.92h-2.15v27.53h-45.37v-229.17h46.14v86.13h1.38c2.15-4.51,5.2-9.18,9.15-14,3.95-4.82,9.15-8.87,15.61-12.15,6.46-3.28,14.56-4.92,24.3-4.92,12.71,0,24.35,3.28,34.91,9.84,10.56,6.56,19,16.41,25.3,29.53,6.31,13.13,9.46,29.48,9.46,49.07s-3.08,35.2-9.23,48.37c-6.15,13.18-14.51,23.17-25.07,29.99-10.56,6.82-22.46,10.23-35.68,10.23ZM1128.35,346.85c8,0,14.74-2.2,20.23-6.61,5.48-4.41,9.64-10.51,12.46-18.3,2.82-7.79,4.23-16.71,4.23-26.76s-1.41-18.92-4.23-26.61c-2.82-7.69-6.95-13.74-12.38-18.15-5.44-4.41-12.2-6.61-20.3-6.61s-14.61,2.13-20.15,6.38c-5.54,4.26-9.74,10.2-12.61,17.84-2.87,7.64-4.31,16.69-4.31,27.15s1.46,19.41,4.38,27.15c2.92,7.74,7.15,13.77,12.69,18.07s12.2,6.46,20,6.46Z"/>
    <path d="M1313.01,384.38c-17.54,0-32.66-3.59-45.37-10.77-12.72-7.18-22.48-17.38-29.3-30.61-6.82-13.23-10.23-28.92-10.23-47.06s3.38-33.27,10.15-46.6c6.77-13.33,16.35-23.74,28.76-31.22,12.41-7.48,26.97-11.23,43.68-11.23,11.28,0,21.79,1.8,31.53,5.38,9.74,3.59,18.3,9,25.69,16.23,7.38,7.23,13.15,16.28,17.3,27.15,4.15,10.87,6.23,23.69,6.23,38.45v12.92h-144.43v-28.92h121.82l-21.53,7.69c0-8.92-1.36-16.69-4.08-23.3-2.72-6.61-6.77-11.74-12.15-15.38-5.38-3.64-12.02-5.46-19.92-5.46s-14.79,1.85-20.38,5.54c-5.59,3.69-9.82,8.69-12.69,15-2.87,6.31-4.31,13.51-4.31,21.61v20.46c0,9.95,1.67,18.3,5,25.07,3.33,6.77,8,11.84,14,15.23,6,3.38,13,5.08,21,5.08,5.43,0,10.36-.77,14.77-2.31,4.41-1.54,8.18-3.82,11.3-6.84,3.13-3.02,5.51-6.74,7.15-11.15l41.84,7.84c-2.77,9.43-7.59,17.71-14.46,24.84-6.87,7.13-15.46,12.64-25.76,16.53-10.31,3.9-22.17,5.84-35.61,5.84Z"/>
    <path d="M1413.53,445.29v-236.25h45.37v28.92h2.15c2.15-4.51,5.2-9.18,9.15-14,3.95-4.82,9.15-8.87,15.61-12.15,6.46-3.28,14.56-4.92,24.3-4.92,12.71,0,24.35,3.28,34.91,9.84,10.56,6.56,19,16.41,25.3,29.53,6.31,13.13,9.46,29.48,9.46,49.07s-3.08,35.2-9.23,48.37c-6.15,13.18-14.51,23.17-25.07,29.99-10.56,6.82-22.46,10.23-35.68,10.23-9.33,0-17.23-1.59-23.69-4.77s-11.72-7.1-15.77-11.77c-4.05-4.66-7.15-9.3-9.3-13.92h-1.38v91.82h-46.14ZM1495.67,346.85c8,0,14.74-2.2,20.23-6.61,5.48-4.41,9.64-10.51,12.46-18.3,2.82-7.79,4.23-16.71,4.23-26.76s-1.41-18.92-4.23-26.61c-2.82-7.69-6.95-13.74-12.38-18.15-5.44-4.41-12.2-6.61-20.3-6.61s-14.61,2.13-20.15,6.38c-5.54,4.26-9.74,10.2-12.61,17.84-2.87,7.64-4.31,16.69-4.31,27.15s1.46,19.41,4.38,27.15c2.92,7.74,7.15,13.77,12.69,18.07s12.2,6.46,20,6.46Z"/>
    <path d="M1653.71,384.38c-10.87,0-20.64-1.92-29.3-5.77-8.67-3.85-15.48-9.59-20.46-17.23-4.97-7.64-7.46-17.15-7.46-28.53,0-9.54,1.77-17.54,5.31-23.99,3.54-6.46,8.36-11.64,14.46-15.54,6.1-3.9,13.02-6.87,20.76-8.92,7.74-2.05,15.87-3.49,24.38-4.31,9.94-1.02,17.97-1.97,24.07-2.85,6.1-.87,10.56-2.25,13.38-4.15,2.82-1.9,4.23-4.69,4.23-8.38v-.77c0-4.92-1.03-9.08-3.08-12.46-2.05-3.38-5.1-5.97-9.15-7.77-4.05-1.79-8.95-2.69-14.69-2.69s-11.13.9-15.53,2.69c-4.41,1.8-8,4.18-10.77,7.15-2.77,2.97-4.82,6.31-6.15,10l-42.3-6.92c2.97-10.05,7.89-18.56,14.77-25.53,6.87-6.97,15.41-12.3,25.61-16,10.2-3.69,21.71-5.54,34.53-5.54,9.23,0,18.2,1.1,26.92,3.31,8.71,2.21,16.53,5.61,23.46,10.23,6.92,4.61,12.41,10.64,16.46,18.07,4.05,7.44,6.08,16.33,6.08,26.69v115.82h-43.68v-23.84h-1.54c-2.77,5.33-6.46,10.02-11.07,14.07-4.61,4.05-10.18,7.26-16.69,9.61-6.51,2.36-14.02,3.54-22.53,3.54ZM1666.79,351.93c7.28,0,13.66-1.44,19.15-4.31,5.48-2.87,9.77-6.77,12.84-11.69s4.61-10.41,4.61-16.46v-18.61c-1.33,1.03-3.38,1.95-6.15,2.77-2.77.82-5.84,1.54-9.23,2.15-3.38.62-6.72,1.18-10,1.69-3.28.51-6.21.92-8.77,1.23-5.64.82-10.61,2.15-14.92,4s-7.64,4.28-10,7.31c-2.36,3.03-3.54,6.9-3.54,11.61,0,4.41,1.13,8.13,3.38,11.15,2.25,3.03,5.33,5.31,9.23,6.84,3.9,1.54,8.36,2.31,13.38,2.31Z"/>
    <path d="M1841.91,383.92c-13.13,0-24.99-3.41-35.61-10.23-10.61-6.82-19-16.82-25.15-29.99-6.15-13.17-9.23-29.3-9.23-48.37s3.18-35.94,9.54-49.07c6.36-13.12,14.82-22.97,25.38-29.53,10.56-6.56,22.2-9.84,34.91-9.84,9.74,0,17.84,1.64,24.3,4.92,6.46,3.28,11.69,7.33,15.69,12.15,4,4.82,6.97,9.49,8.92,14h1.54v-86.13h46.14v229.17h-45.37v-27.53h-2.31c-2.05,4.62-5.1,9.26-9.15,13.92-4.05,4.67-9.3,8.59-15.77,11.77-6.46,3.18-14.41,4.77-23.84,4.77ZM1856.21,346.85c7.79,0,14.46-2.15,19.99-6.46s9.74-10.33,12.61-18.07c2.87-7.74,4.31-16.79,4.31-27.15s-1.41-19.51-4.23-27.15c-2.82-7.64-7-13.58-12.54-17.84-5.54-4.25-12.25-6.38-20.15-6.38s-14.9,2.21-20.38,6.61c-5.49,4.41-9.61,10.46-12.38,18.15-2.77,7.69-4.15,16.56-4.15,26.61s1.41,18.97,4.23,26.76c2.82,7.79,6.97,13.9,12.46,18.3,5.48,4.41,12.23,6.61,20.23,6.61Z"/>
  </g>
</svg>