<?xml version="1.0" encoding="UTF-8"?>
<svg id="Logo" xmlns="http://www.w3.org/2000/svg" xmlns:xlink="http://www.w3.org/1999/xlink" viewBox="0 0 1968 500">
  <defs>
    <style>
      .cls-1 {
        fill: #64b9ff;
      }

      .cls-2 {
        fill: #fff;
      }

      .cls-3 {
        fill: url(#linear-gradient);
      }
    </style>
    <linearGradient id="linear-gradient" x1="257.43" y1="488.43" x2="257.43" y2="10.81" gradientUnits="userSpaceOnUse">
      <stop offset="0" stop-color="#1971c2"/>
      <stop offset="1" stop-color="#3b5bdb"/>
    </linearGradient>
  </defs>
  <g>
    <path d="M822.39,364.78c-11.92,5.59-23.52,9.63-34.8,12.1-11.29,2.48-23.47,3.72-36.54,3.72-35.33,0-63.1-9.91-83.29-29.74-20.2-19.83-30.3-48.09-30.3-84.8,0-34.59,11.05-63.25,33.14-85.98,22.09-22.73,51.18-34.09,87.25-34.09,12.23,0,23.23.92,32.99,2.77,9.75,1.85,19.7,4.77,29.82,8.78l-15.19,40.03c-7.59-3.16-15.06-5.43-22.39-6.8-7.33-1.37-15.21-2.06-23.65-2.06-19.09,0-35.52,6.64-49.28,19.93s-20.65,31.32-20.65,54.11,6.04,41.56,18.11,54.74c12.08,13.19,28.61,19.78,49.6,19.78,6.01,0,13.16-.95,21.44-2.85,8.28-1.9,16.74-5.01,25.39-9.33l18.35,39.71Z"/>
    <path d="M1000.97,376.64h-48.25v-25.47h-.79c-6.22,9.81-13.58,17.19-22.07,22.15-8.49,4.96-18.11,7.44-28.87,7.44-19.3,0-33.75-5.83-43.35-17.48-9.6-11.65-14.4-29.13-14.4-52.44v-100.14h48.25v95.55c0,12.34,2.42,21.62,7.28,27.84,4.85,6.22,12.18,9.33,21.99,9.33s17.45-3.4,23.26-10.2c5.8-6.8,8.7-16,8.7-27.61v-94.92h48.25v165.96Z"/>
    <path d="M1087.79,356.87h-.63v19.78h-48.41v-239.84h48.41v99.35h.63c6.33-9.91,14.03-17.32,23.1-22.23,9.07-4.9,19.51-7.36,31.32-7.36,21.41,0,37.92,7.36,49.52,22.07,11.6,14.71,17.4,34.78,17.4,60.2,0,27.74-6.78,49.99-20.33,66.76-13.55,16.77-31.62,25.15-54.18,25.15-10.34,0-19.41-1.98-27.21-5.93-7.81-3.96-14.34-9.94-19.62-17.96ZM1086.36,287.1v17.56c0,11.29,3.24,20.57,9.73,27.84s14.79,10.92,24.92,10.92c12.23,0,21.7-4.69,28.4-14.08,6.7-9.39,10.05-22.67,10.05-39.87,0-14.34-3.08-25.52-9.25-33.54-6.17-8.01-14.9-12.02-26.18-12.02s-19.99,4.01-27.05,12.02c-7.07,8.02-10.6,18.41-10.6,31.17Z"/>
    <path d="M1384.7,307.19h-109.32c.84,12.76,5.01,22.33,12.5,28.71,7.49,6.38,17.82,9.57,31.01,9.57,4.85,0,11.47-1.4,19.85-4.19,8.38-2.79,16.58-7.2,24.6-13.21l21.04,28.16c-11.29,8.44-22.78,14.63-34.49,18.59s-24.63,5.93-38.76,5.93c-26.47,0-47.04-7.44-61.7-22.31-14.66-14.87-21.99-35.65-21.99-62.33s7.75-48.15,23.26-64.71c15.5-16.56,35.12-24.84,58.85-24.84s41.26,6.96,54.82,20.88c13.55,13.92,20.33,33.96,20.33,60.12v19.62ZM1339.77,276.82c0-13.08-2.59-22.54-7.75-28.4-5.17-5.85-12.76-8.78-22.78-8.78-8.76,0-16.27,3.35-22.54,10.05-6.28,6.7-10.1,15.74-11.47,27.13h64.55Z"/>
    <path d="M1459.19,356.71h-.63v94.45h-48.41v-240.47h48.41v25.47h.63c6.33-9.91,14-17.32,23.02-22.23s19.27-7.36,30.77-7.36c21.52,0,38.15,7.38,49.91,22.15,11.76,14.77,17.64,34.86,17.64,60.28,0,27.63-6.86,49.83-20.57,66.6-13.71,16.77-31.91,25.15-54.58,25.15-10.12,0-19.01-2-26.66-6.01-7.65-4.01-14.16-10.02-19.54-18.04ZM1457.76,288.84v14.4c0,11.71,3.19,21.33,9.57,28.87,6.38,7.54,14.74,11.31,25.08,11.31,12.13,0,21.57-4.69,28.32-14.08,6.75-9.39,10.12-22.67,10.12-39.87,0-15.08-2.98-26.45-8.94-34.09-5.96-7.65-14.79-11.47-26.5-11.47s-20.25,4.11-27.21,12.34-10.44,19.09-10.44,32.59Z"/>
    <path d="M1744.71,376.64h-46.04v-24.05h-.63c-5.49,9.28-12.39,16.29-20.72,21.04-8.33,4.75-17.77,7.12-28.32,7.12-14.77,0-27.21-4.43-37.34-13.29s-15.19-21.09-15.19-36.7,5.04-28.05,15.11-37.65c10.07-9.6,25.71-15.82,46.91-18.67l40.66-5.54v-3.16c0-8.54-2.64-14.98-7.91-19.3-5.28-4.32-12.55-6.49-21.83-6.49-6.96,0-14.55,1.19-22.78,3.56s-16.51,6.15-24.84,11.31l-17.09-28.63c10.86-6.64,21.86-11.57,32.99-14.79,11.13-3.22,23.18-4.83,36.15-4.83,24.05,0,41.87,5.8,53.47,17.4,11.6,11.6,17.4,29.06,17.4,52.37v100.3ZM1699.15,309.09v-11.71l-31.48,4.11c-8.86,1.16-15.45,3.72-19.78,7.67-4.33,3.96-6.49,9.25-6.49,15.9,0,6.12,2.11,11.13,6.33,15.03,4.22,3.9,9.91,5.85,17.09,5.85,10.12,0,18.38-3.45,24.76-10.36,6.38-6.91,9.57-15.74,9.57-26.5Z"/>
    <path d="M1891.33,353.23c-5.91,9.07-13.19,15.93-21.83,20.57-8.65,4.64-18.72,6.96-30.22,6.96-20.67,0-37.34-7.36-49.99-22.07s-18.98-35.15-18.98-61.3c0-27.53,6.99-49.54,20.96-66.05,13.97-16.5,32.25-24.76,54.82-24.76,10.65,0,19.78,1.95,27.37,5.85,7.59,3.9,13.55,9.81,17.88,17.72h.63v-93.34h48.41v239.84h-48.41v-23.41h-.63ZM1819.51,295.8c0,15.29,3.22,27.05,9.65,35.28,6.43,8.23,15.35,12.34,26.74,12.34s19.85-4.3,26.66-12.89c6.8-8.59,10.2-19.91,10.2-33.93v-13.76c0-11.18-3.27-20.46-9.81-27.84-6.54-7.38-15.03-11.07-25.47-11.07-11.92,0-21.23,4.62-27.92,13.84-6.7,9.23-10.05,21.91-10.05,38.05Z"/>
  </g>
  <path class="cls-3" d="M39.9,170.22v158.81c0,28.58,15.25,54.99,40,69.28l137.54,79.41c24.75,14.29,55.25,14.29,80,0l137.54-79.41c24.75-14.29,40-40.7,40-69.28v-158.81c0-28.58-15.25-54.99-40-69.28L297.43,21.53c-24.75-14.29-55.25-14.29-80,0L79.9,100.93c-24.75,14.29-40,40.7-40,69.28Z"/>
  <path class="cls-2" d="M386.48,156.79l-117.17,67.65c-7.43,4.29-16.57,4.29-24,0l-117.17-67.65c-16-9.24-16-32.33,0-41.57l117.17-67.65c7.43-4.29,16.57-4.29,24,0l117.17,67.65c16,9.24,16,32.33,0,41.57Z"/>
  <path class="cls-1" d="M441.92,218v120.7c0,9.65-5.15,18.56-13.5,23.38l-104.53,60.35c-18,10.39-40.5-2.6-40.5-23.38v-120.7c0-9.65,5.15-18.56,13.5-23.38l104.53-60.35c18-10.39,40.5,2.6,40.5,23.38Z"/>
  <path class="cls-1" d="M219.16,363.94l-104.53-60.14c-18-10.36-40.46,2.64-40.46,23.4v11.38c0,9.65,5.15,18.56,13.5,23.38l104.53,60.35c18,10.39,40.5-2.6,40.5-23.38v-11.59c0-9.66-5.16-18.59-13.54-23.4Z"/>
  <path class="cls-2" d="M219.16,254.94l-104.53-60.14c-18-10.36-40.46,2.64-40.46,23.4v11.38c0,9.65,5.15,18.56,13.5,23.38l104.53,60.35c18,10.39,40.5-2.6,40.5-23.38v-11.59c0-9.66-5.16-18.59-13.54-23.4Z"/>
</svg>